<svg width="428" height="269" viewBox="0 0 428 269" fill="none" xmlns="http://www.w3.org/2000/svg">
<path d="M427.127 150.032C421.641 199.891 388.07 244.524 337.423 261.661C309.048 271.262 279.645 270.738 253.211 262.037C244.102 259.038 239.148 249.223 242.147 240.113C245.145 231.004 254.961 226.049 264.071 229.048C283.611 235.48 305.291 235.869 326.292 228.763C362.442 216.532 386.822 185.346 392.104 150.032H427.127Z" fill="#2463EB"/>
<path d="M251.786 150.032C249.025 167.134 245.636 182.93 240.436 196.728C235.151 210.75 227.767 223.556 216.786 234.412C205.793 245.28 191.942 253.454 174.751 259.271C105.104 282.836 29.5401 245.479 5.97466 175.831C3.08295 167.285 1.10992 158.649 0 150.032H35.1247C35.9843 154.936 37.2267 159.838 38.872 164.701C56.2901 216.179 112.142 243.79 163.621 226.372C176.712 221.943 185.742 216.264 192.369 209.713C199.008 203.15 203.983 194.97 207.937 184.479C211.708 174.476 214.33 163.14 216.583 150.032H251.786Z" fill="#E07916"/>
<path d="M89.413 7.05456C117.789 -2.54665 147.197 -2.02982 173.637 6.67563C182.746 9.67496 187.699 19.4906 184.7 28.5998C181.701 37.7091 171.884 42.6626 162.775 39.6632C143.236 33.23 121.551 32.8444 100.545 39.9519C67.5137 51.1281 44.3098 78.1282 36.5218 109.643H1.02132C9.34608 63.493 41.8491 23.1481 89.413 7.05456Z" fill="#07DDF9"/>
<path d="M252.085 9.44463C321.732 -14.1205 397.296 23.2367 420.862 92.8841C422.742 98.4424 424.234 104.039 425.353 109.643H389.683C389.168 107.763 388.597 105.885 387.964 104.015C370.546 52.5361 314.694 24.925 263.215 42.343C250.125 46.7724 241.094 52.4509 234.467 59.0022C227.829 65.5654 222.853 73.7458 218.899 84.237C217.294 88.4954 216.06 91.4383 215.062 93.8183C212.842 99.1159 211.791 101.624 210.416 109.643H176.32C177.367 101.837 178.103 97.175 179.268 92.6227C180.631 87.295 182.583 82.1178 186.31 72.2278L186.4 71.9875C191.685 57.9655 199.069 45.1596 210.05 34.3037C221.044 23.4356 234.894 15.2611 252.085 9.44463Z" fill="#00D808"/>
</svg>
