<svg xmlns="http://www.w3.org/2000/svg" width="41.887" height="26.352" viewBox="0 0 41.887 26.352" fill="none">
  <path d="M 41.887 14.713 C 41.349 19.603 38.057 23.98 33.09 25.66 C 30.307 26.602 27.424 26.55 24.832 25.697 C 23.938 25.403 23.453 24.441 23.747 23.547 C 24.041 22.654 25.003 22.168 25.897 22.462 C 27.813 23.093 29.939 23.131 31.998 22.434 C 35.544 21.235 37.935 18.176 38.452 14.713 L 41.887 14.713 Z" fill="currentColor" fill-rule="nonzero"></path>
  <path d="M 24.692 14.713 C 24.421 16.39 24.089 17.939 23.579 19.293 C 23.061 20.668 22.336 21.923 21.26 22.988 C 20.181 24.054 18.823 24.856 17.137 25.426 C 10.307 27.737 2.897 24.073 0.586 17.243 C 0.302 16.405 0.109 15.558 0 14.713 L 3.445 14.713 C 3.529 15.194 3.651 15.675 3.812 16.152 C 5.52 21.2 10.997 23.908 16.046 22.2 C 17.33 21.765 18.215 21.208 18.865 20.566 C 19.516 19.922 20.004 19.12 20.392 18.091 C 20.762 17.11 21.019 15.999 21.24 14.713 L 24.692 14.713 Z" fill="currentColor" fill-rule="nonzero"></path>
  <path d="M 8.768 0.692 C 11.551 -0.25 14.435 -0.199 17.028 0.655 C 17.921 0.949 18.407 1.911 18.113 2.805 C 17.819 3.698 16.856 4.184 15.963 3.89 C 14.047 3.259 11.92 3.221 9.86 3.918 C 6.621 5.014 4.345 7.662 3.582 10.752 L 0.1 10.752 C 0.917 6.227 4.104 2.27 8.768 0.692 Z" fill="currentColor" fill-rule="nonzero"></path>
  <path d="M 24.721 0.926 C 31.551 -1.385 38.962 2.279 41.273 9.109 C 41.457 9.654 41.603 10.203 41.713 10.752 L 38.215 10.752 C 38.165 10.568 38.109 10.384 38.047 10.2 C 36.338 5.152 30.861 2.444 25.813 4.152 C 24.529 4.587 23.643 5.144 22.994 5.786 C 22.342 6.43 21.855 7.232 21.467 8.261 C 21.309 8.678 21.188 8.967 21.091 9.2 C 20.873 9.72 20.77 9.966 20.635 10.752 L 17.291 10.752 C 17.394 9.987 17.466 9.53 17.58 9.083 C 17.714 8.561 17.905 8.053 18.271 7.083 L 18.28 7.06 C 18.798 5.685 19.522 4.429 20.599 3.364 C 21.677 2.298 23.035 1.497 24.721 0.926 Z" fill="currentColor" fill-rule="nonzero"></path>
</svg>